# Blender v2.80 (sub 75) OBJ File: ''
# www.blender.org
o Cube.001
v 3.835736 -0.086759 -3.429089
v 3.835736 -0.086758 3.429090
v -3.835737 -0.086758 3.429089
v -3.835735 -0.086759 -3.429091
v 3.835738 0.086758 -3.429088
v 3.835734 0.086759 3.429092
v -3.835738 0.086759 3.429088
v -3.835736 0.086758 -3.429090
vt 1.000000 0.000000
vt 0.833333 0.166667
vt 0.833333 0.000000
vt 0.333333 0.666667
vt 0.166667 0.500000
vt 0.333333 0.500000
vt 0.166667 0.166667
vt 0.333333 0.000000
vt 0.333333 0.166667
vt 0.000000 0.000000
vt 0.166667 0.166667
vt 0.000000 0.166667
vt 0.833333 0.500000
vt 0.666667 0.333333
vt 0.833333 0.333333
vt 0.666667 0.166667
vt 0.500000 0.333333
vt 0.500000 0.166667
vt 1.000000 0.166667
vt 0.166667 0.666667
vt 0.166667 0.000000
vt 0.166667 0.000000
vt 0.666667 0.500000
vt 0.666667 0.333333
vn -0.0000 -1.0000 0.0000
vn 0.0000 1.0000 -0.0000
vn 1.0000 -0.0000 0.0000
vn -0.0000 -0.0000 1.0000
vn -1.0000 -0.0000 -0.0000
vn 0.0000 0.0000 -1.0000
s 1
f 2/1/1 4/2/1 1/3/1
f 8/4/2 6/5/2 5/6/2
f 5/7/3 2/8/3 1/9/3
f 6/10/4 3/11/4 2/12/4
f 3/13/5 8/14/5 4/15/5
f 1/16/6 8/17/6 5/18/6
f 2/1/1 3/19/1 4/2/1
f 8/4/2 7/20/2 6/5/2
f 5/7/3 6/21/3 2/8/3
f 6/10/4 7/22/4 3/11/4
f 3/13/5 7/23/5 8/14/5
f 1/16/6 4/24/6 8/17/6
